<?xml version="1.0"?>
<svg xmlns="http://www.w3.org/2000/svg" xmlns:xlink="http://www.w3.org/1999/xlink" version="1.1" id="Capa_1" x="0px" y="0px" viewBox="0 0 368 368" style="enable-background:new 0 0 368 368;" xml:space="preserve" width="512px" height="512px" class=""><g transform="matrix(1.13809 0 0 1.13809 -25.4091 -25.4091)"><g>
	<g>
		<path d="M288,128.002h-80l44.792-33.6c3.536-2.648,4.256-7.664,1.6-11.2c-2.648-3.528-7.664-4.264-11.192-1.6l-64,48    c-0.136,0.104-0.184,0.272-0.312,0.376c-0.616,0.52-1.096,1.144-1.528,1.832c-0.184,0.288-0.416,0.528-0.56,0.832    c-0.488,1.032-0.8,2.152-0.8,3.36s0.312,2.328,0.792,3.352c0.144,0.312,0.384,0.544,0.56,0.832    c0.432,0.688,0.912,1.304,1.528,1.832c0.128,0.112,0.184,0.28,0.312,0.376l64,48c1.44,1.08,3.12,1.6,4.792,1.6    c2.44,0,4.832-1.104,6.408-3.2c2.656-3.536,1.936-8.552-1.6-11.2L208,144.002h80c35.288,0,64,28.712,64,64    c0,35.288-28.712,64-64,64H80c-35.288,0-64-28.712-64-64c0-35.288,28.712-64,64-64h56c4.416,0,8-3.584,8-8s-3.584-8-8-8H80    c-44.112,0-80,35.888-80,80s35.888,80,80,80h208c44.112,0,80-35.888,80-80S332.112,128.002,288,128.002z" data-original="#000000" class="active-path" data-old_color="#000000" fill="#FFFFFF"/>
	</g>
</g></g> </svg>
